HIERARCHY
ROOT Hips
{
	OFFSET 0.00000 0.00000 0.00000
	CHANNELS 6 Xposition Yposition Zposition Zrotation Yrotation Xrotation 
	JOINT LHipJoint
	{
		OFFSET 0 0 0
		CHANNELS 3 Zrotation Yrotation Xrotation
		JOINT LeftUpLeg
		{
			OFFSET 1.62964 -1.40469 0.78906
			CHANNELS 3 Zrotation Yrotation Xrotation
			JOINT LeftLeg
			{
				OFFSET 2.29640 -6.30932 0.00000
				CHANNELS 3 Zrotation Yrotation Xrotation
				JOINT LeftFoot
				{
					OFFSET 2.29451 -6.30412 0.00000
					CHANNELS 3 Zrotation Yrotation Xrotation
					JOINT LeftToeBase
					{
						OFFSET 0.03611 -0.09921 1.56387
						CHANNELS 3 Zrotation Yrotation Xrotation
						End Site
						{
							OFFSET 0.00000 -0.00000 0.80291
						}
					}
				}
			}
		}
	}
	JOINT RHipJoint
	{
		OFFSET 0 0 0
		CHANNELS 3 Zrotation Yrotation Xrotation
		JOINT RightUpLeg
		{
			OFFSET -1.73712 -1.40469 0.78906
			CHANNELS 3 Zrotation Yrotation Xrotation
			JOINT RightLeg
			{
				OFFSET -2.28137 -6.26801 0.00000
				CHANNELS 3 Zrotation Yrotation Xrotation
				JOINT RightFoot
				{
					OFFSET -2.28681 -6.28298 0.00000
					CHANNELS 3 Zrotation Yrotation Xrotation
					JOINT RightToeBase
					{
						OFFSET -0.15927 -0.43759 1.61103
						CHANNELS 3 Zrotation Yrotation Xrotation
						End Site
						{
							OFFSET -0.00000 -0.00000 0.84630
						}
					}
				}
			}
		}
	}
	JOINT LowerBack
	{
		OFFSET 0 0 0
		CHANNELS 3 Zrotation Yrotation Xrotation
		JOINT Spine
		{
			OFFSET -0.04227 2.04338 -0.00225
			CHANNELS 3 Zrotation Yrotation Xrotation
			JOINT Spine1
			{
				OFFSET -0.02148 2.04482 -0.04273
				CHANNELS 3 Zrotation Yrotation Xrotation
				JOINT Neck
				{
					OFFSET 0 0 0
					CHANNELS 3 Zrotation Yrotation Xrotation
					JOINT Neck1
					{
						OFFSET 0.09180 1.44629 0.19359
						CHANNELS 3 Zrotation Yrotation Xrotation
						JOINT Head
						{
							OFFSET 0.00887 1.40645 0.14750
							CHANNELS 3 Zrotation Yrotation Xrotation
							End Site
							{
								OFFSET -0.00669 1.50671 0.03707
							}
						}
					}
				}
				JOINT LeftShoulder
				{
					OFFSET 0 0 0
					CHANNELS 3 Zrotation Yrotation Xrotation
					JOINT LeftArm
					{
						OFFSET 2.17674 1.86763 -0.06520
						CHANNELS 3 Zrotation Yrotation Xrotation
						JOINT LeftForeArm
						{
							OFFSET 4.65776 -0.00000 0.00000
							CHANNELS 3 Zrotation Yrotation Xrotation
							JOINT LeftHand
							{
								OFFSET 3.55539 -0.00000 0.00000
								CHANNELS 3 Zrotation Yrotation Xrotation
								JOINT LeftFingerBase
								{
									OFFSET 0 0 0
									CHANNELS 3 Zrotation Yrotation Xrotation
									JOINT LeftHandIndex1
									{
										OFFSET 0.70726 -0.00000 0.00000
										CHANNELS 3 Zrotation Yrotation Xrotation
										End Site
										{
											OFFSET 0.57022 -0.00000 0.00000
										}
									}
								}
								JOINT LThumb
								{
									OFFSET 0 0 0
									CHANNELS 3 Zrotation Yrotation Xrotation
									End Site
									{
										OFFSET 0.57892 -0.00000 0.57892
									}
								}
							}
						}
					}
				}
				JOINT RightShoulder
				{
					OFFSET 0 0 0
					CHANNELS 3 Zrotation Yrotation Xrotation
					JOINT RightArm
					{
						OFFSET -2.80694 1.55459 -0.32496
						CHANNELS 3 Zrotation Yrotation Xrotation
						JOINT RightForeArm
						{
							OFFSET -4.71925 -0.00000 -0.00000
							CHANNELS 3 Zrotation Yrotation Xrotation
							JOINT RightHand
							{
								OFFSET -3.56990 -0.00000 0.00000
								CHANNELS 3 Zrotation Yrotation Xrotation
								JOINT RightFingerBase
								{
									OFFSET 0 0 0
									CHANNELS 3 Zrotation Yrotation Xrotation
									JOINT RightHandIndex1
									{
										OFFSET -0.50776 -0.00000 0.00000
										CHANNELS 3 Zrotation Yrotation Xrotation
										End Site
										{
											OFFSET -0.40937 -0.00000 0.00000
										}
									}
								}
								JOINT RThumb
								{
									OFFSET 0 0 0
									CHANNELS 3 Zrotation Yrotation Xrotation
									End Site
									{
										OFFSET -0.41562 -0.00000 0.41562
									}
								}
							}
						}
					}
				}
			}
		}
	}
}
MOTION
Frames: 14
Frame Time: .0083333
9.7094 24.7571 7.5367 186.0050 -195.0240 -145.8970 0.0000 0.0000 0.0000 3.5917 -31.7597 -46.5031 2.0169 8.9012 25.4869 2.2928 12.6747 27.3716 6.3255 -14.7366 -46.2747 0.0000 0.0000 0.0000 25.9081 12.4323 -37.5599 -2.1793 -9.2300 26.5176 -1.5697 -13.2734 22.9366 -2.4886 9.8172 -28.3867 -6.6863 -0.6648 -24.2069 -0.7371 1.0502 -2.3441 3.3606 0.2263 10.8268 -4.2911 -0.4035 -0.9063 7.1055 -0.9275 9.0696 3.1035 -0.3567 3.1787 0.0000 -0.0000 0.0000 -80.6720 -8.5298 77.7492 87.5339 -59.9770 -57.8645 -0.0000 0.0000 -8.0579 31.7156 -27.9130 -16.1351 -7.1250 0.0000 -0.0000 0.7622 -1.9309 -0.7876 0.0000 -0.0000 0.0000 87.7505 -12.4467 51.9645 -92.5350 59.9757 -62.1952 0.0000 -0.0000 -14.6509 1.3583 -34.8690 -0.7766 7.1250 -0.0000 -0.0000 39.6936 -60.2168 -16.2249
9.6920 24.8824 7.5717 186.6690 -200.1530 -145.4030 0.0000 0.0000 0.0000 3.6818 -31.4813 -47.3457 2.0930 9.0571 25.9741 2.2115 12.4189 26.8663 6.2907 -14.7043 -46.1377 0.0000 0.0000 0.0000 25.3979 12.0844 -37.6516 -2.1439 -9.1597 26.2960 -1.7857 -12.8020 24.2747 -2.1646 9.2009 -26.4258 -6.2236 -0.8581 -24.0706 -0.6186 0.6642 -2.1330 3.1022 0.0550 11.0386 -4.3360 -0.3830 -0.9429 7.1180 -0.8914 9.0572 3.1177 -0.3369 3.1798 0.0000 0.0000 0.0000 -80.3790 -8.9030 77.7944 88.1819 -59.9875 -58.4255 -0.0000 0.0000 -7.6450 31.9281 -28.0120 -16.3124 -7.1250 0.0000 -0.0000 0.8666 -2.0967 -0.8978 0.0000 0.0000 0.0000 87.4649 -13.0427 51.6626 -93.3078 59.9586 -62.8643 0.0000 -0.0000 -14.8983 -0.7665 -34.1475 0.4303 7.1250 -0.0000 -0.0000 36.8763 -60.1544 -14.8157
9.6713 24.9826 7.6057 187.3120 -205.2580 -144.7120 0.0000 0.0000 0.0000 3.9187 -31.0966 -48.4638 2.1943 9.2596 26.6109 2.1755 12.0055 26.6132 6.2789 -14.6933 -46.0911 0.0000 0.0000 0.0000 25.0263 11.9869 -37.8076 -2.0918 -9.0548 25.9669 -2.0017 -12.2383 25.5702 -2.2499 9.3682 -26.9542 -5.7440 -1.0532 -23.9841 -0.4606 0.2659 -2.0111 2.8741 -0.1162 11.1712 -4.3512 -0.3553 -0.9767 7.1004 -0.8454 9.0644 3.1163 -0.3121 3.1856 0.0000 0.0000 0.0000 -80.0055 -9.3914 77.8739 88.8879 -59.9953 -59.0369 -0.0000 0.0000 -7.1701 31.9592 -27.9821 -16.3159 -7.1250 0.0000 -0.0000 0.8903 -2.0728 -0.9221 0.0000 0.0000 0.0000 87.2197 -13.6650 51.3536 -93.7043 59.9481 -63.2075 0.0000 -0.0000 -15.0960 -2.8374 -32.9859 1.5457 7.1250 -0.0000 -0.0000 33.6763 -59.6958 -12.9667
9.6488 25.0639 7.6542 187.8390 -210.2750 -144.1180 0.0000 0.0000 0.0000 4.2878 -30.6581 -49.4570 2.3256 9.5136 27.4156 2.0926 11.7814 26.0885 6.2925 -14.7059 -46.1447 0.0000 0.0000 0.0000 24.9175 12.1475 -37.7854 -2.0480 -8.9654 25.6871 -2.1111 -11.7943 26.2036 -2.4349 9.7186 -28.0703 -5.2898 -1.2393 -23.9543 -0.1751 -0.1263 -1.8399 2.8051 -0.2925 11.3859 -4.4585 -0.2970 -0.9760 7.0831 -0.7552 9.0566 3.1332 -0.2693 3.1778 0.0000 -0.0000 0.0000 -79.6609 -9.8142 77.9158 89.8254 -59.9999 -59.8488 -0.0000 0.0000 -6.6707 31.9578 -27.9102 -16.2785 -7.1250 0.0000 -0.0000 0.9032 -1.9942 -0.9342 0.0000 -0.0000 0.0000 87.0081 -14.1898 50.8549 -94.0296 59.9386 -63.4890 0.0000 -0.0000 -14.7899 -0.8024 -34.6872 0.4567 7.1250 -0.0000 -0.0000 37.4195 -60.5921 -15.4674
9.6263 25.1331 7.7156 188.5960 -214.8730 -143.6370 0.0000 0.0000 0.0000 4.3568 -30.3392 -49.8527 2.4358 9.7202 28.0752 1.9131 12.1148 25.0005 6.1943 -14.6141 -45.7568 0.0000 0.0000 0.0000 24.5490 12.5397 -37.4703 -2.0347 -8.9380 25.6015 -2.0976 -11.8309 26.1238 -2.4207 9.6922 -27.9856 -5.2803 -1.4388 -23.6937 0.1094 -0.4348 -1.6888 3.0175 -0.4478 11.4464 -4.5594 -0.2500 -0.8207 7.0682 -0.6844 9.0349 3.1473 -0.2383 3.1373 -0.0000 0.0000 0.0000 -79.2222 -9.9179 78.0211 90.8360 -59.9974 -60.7240 -0.0000 0.0000 -6.6213 32.5383 -28.0110 -16.6801 -7.1250 0.0000 -0.0000 1.2199 -2.2657 -1.2674 -0.0000 0.0000 0.0000 86.7405 -14.7503 50.4297 -94.1629 59.9344 -63.6044 0.0000 -0.0000 -14.6318 1.1375 -34.4104 -0.6429 7.1250 -0.0000 -0.0000 38.9848 -59.9127 -15.5920
9.6075 25.1886 7.7769 189.8030 -219.0360 -142.9400 0.0000 0.0000 0.0000 4.1019 -30.2198 -49.9859 2.5409 9.9118 28.6917 1.6662 12.7976 23.4963 5.8975 -14.3283 -44.5691 0.0000 0.0000 0.0000 23.7949 12.9631 -37.2568 -2.0748 -9.0202 25.8584 -2.0794 -11.4070 25.9773 -2.3907 9.6364 -27.8071 -5.6231 -1.6827 -23.1799 0.2568 -0.7112 -1.6356 3.2901 -0.5934 11.2590 -4.5785 -0.2191 -0.5950 7.0432 -0.6400 9.0320 3.1411 -0.2187 3.0905 0.0000 -0.0000 0.0000 -78.6883 -9.9418 78.0302 91.6974 -59.9891 -61.4700 -0.0000 0.0000 -7.0857 33.3669 -28.0113 -17.1861 -7.1250 0.0000 -0.0000 1.6983 -2.5028 -1.7716 0.0000 -0.0000 0.0000 86.3176 -15.4269 50.8558 -94.2515 59.9316 -63.6811 0.0000 -0.0000 -16.1574 -3.0570 -33.2471 1.6771 7.1250 -0.0000 -0.0000 33.7191 -59.9624 -13.2036
9.5942 25.2297 7.8335 191.3130 -222.9680 -142.0450 0.0000 0.0000 0.0000 3.6916 -30.2143 -50.1065 2.6996 10.1920 29.6009 1.4339 13.1426 21.9906 5.5518 -13.9795 -43.1554 0.0000 0.0000 0.0000 22.9631 13.3246 -37.1867 -2.1476 -9.1669 26.3188 -2.0954 -10.1966 26.0101 -2.4710 9.7850 -28.2831 -5.9394 -1.8574 -22.4812 0.2700 -0.9056 -1.6069 3.4266 -0.6912 10.9345 -4.5175 -0.2325 -0.3317 7.0307 -0.6592 9.0292 3.1222 -0.2277 3.0403 0.0000 -0.0000 0.0000 -78.0802 -9.8865 77.8962 92.9646 -59.9668 -62.5671 -0.0000 0.0000 -7.7055 33.5806 -27.8292 -17.2202 -7.1250 0.0000 -0.0000 1.8581 -2.3651 -1.9342 0.0000 -0.0000 0.0000 86.0024 -16.0034 51.3754 -94.1894 59.9336 -63.6273 0.0000 -0.0000 -17.7241 -0.9506 -37.3365 0.5766 7.1250 -0.0000 -0.0000 40.3879 -62.6847 -18.9384
9.5762 25.2587 7.8943 192.8830 -226.7780 -141.0910 0.0000 0.0000 0.0000 3.3741 -30.1271 -50.1154 2.8534 10.4538 30.4591 1.2705 13.2922 20.8739 5.1916 -13.5964 -41.6441 0.0000 0.0000 0.0000 22.2454 13.9607 -36.9555 -2.2231 -9.3162 26.7894 -2.0501 -9.2671 25.7016 -2.5126 9.8608 -28.5272 -6.2397 -1.9649 -21.7195 0.3013 -1.0277 -1.5476 3.5995 -0.7556 10.6032 -4.4626 -0.2839 -0.0925 7.0433 -0.7291 9.0113 3.1120 -0.2609 2.9935 -0.0000 -0.0000 0.0000 -77.2588 -9.6238 77.7214 94.7353 -59.9151 -64.0997 -0.0000 0.0000 -8.4538 33.5349 -27.6459 -17.0940 -7.1250 0.0000 -0.0000 1.8683 -2.1506 -1.9381 -0.0000 -0.0000 0.0000 85.8237 -16.2925 51.1761 -93.7685 59.9463 -63.2630 0.0000 -0.0000 -16.9989 2.7633 -37.0339 -1.6651 7.1250 -0.0000 -0.0000 43.5516 -61.5057 -19.5115
9.5567 25.2781 7.9637 194.3960 -230.4090 -140.1330 0.0000 0.0000 0.0000 3.1689 -29.7806 -49.9963 2.9779 10.6593 31.1392 1.1765 13.0553 20.1362 5.3382 -13.7549 -42.2642 0.0000 0.0000 0.0000 21.8012 14.7156 -36.6742 -2.3187 -9.5006 27.3741 -1.9405 -8.2989 24.9918 -2.9300 10.5808 -30.8788 -6.4762 -2.0406 -20.9405 0.3672 -1.1344 -1.4965 3.7811 -0.8099 10.2506 -4.3576 -0.3125 0.0890 7.0323 -0.7662 8.9881 3.0855 -0.2761 2.9527 -0.0000 -0.0000 0.0000 -75.9719 -8.9668 77.3336 97.1675 -59.8050 -66.2031 -0.0000 0.0000 -9.2707 33.3082 -27.4673 -16.8607 -7.1250 0.0000 -0.0000 1.7724 -1.8892 -1.8307 -0.0000 -0.0000 0.0000 85.6162 -16.4447 51.2200 -93.4074 59.9561 -62.9504 0.0000 -0.0000 -16.2051 5.6526 -36.4009 -3.3615 7.1250 -0.0000 -0.0000 45.4701 -60.3292 -19.2954
9.5455 25.2899 8.0324 196.0870 -233.9120 -138.9550 0.0000 0.0000 0.0000 3.0355 -29.4294 -49.9675 3.1305 10.9034 31.9548 1.0827 12.8451 19.3830 5.6214 -14.0511 -43.4425 0.0000 0.0000 0.0000 21.3123 15.4415 -36.4708 -2.4140 -9.6799 27.9463 -1.7933 -7.8488 24.0076 -3.2808 11.1363 -32.7411 -6.5032 -2.1428 -20.1280 0.4243 -1.3305 -1.4679 3.8091 -0.8953 9.8594 -4.2423 -0.2843 0.1506 6.9829 -0.7226 8.9744 3.0467 -0.2507 2.9314 0.0000 0.0000 0.0000 -74.5146 -8.2592 76.6778 99.4905 -59.6569 -68.2095 -0.0000 0.0000 -9.7215 33.1221 -27.4751 -16.7524 -7.1250 0.0000 -0.0000 1.6628 -1.8447 -1.7162 0.0000 0.0000 0.0000 85.2726 -16.4794 52.1619 -93.1758 59.9619 -62.7499 0.0000 -0.0000 -16.8045 3.4628 -36.7567 -2.0738 7.1250 -0.0000 -0.0000 43.8673 -61.1269 -19.2891
9.5366 25.2947 8.1001 198.2470 -237.4770 -137.1880 0.0000 0.0000 0.0000 3.1053 -29.2957 -50.2683 3.3225 11.1997 32.9564 0.9896 12.9631 18.6952 5.5938 -14.0228 -43.3288 0.0000 0.0000 0.0000 20.6498 16.0532 -36.3909 -2.4724 -9.7875 28.2913 -1.6771 -8.2265 23.1961 -2.9618 10.6330 -31.0520 -6.4410 -2.3262 -19.4093 0.5500 -1.6540 -1.4724 3.8292 -1.0396 9.4974 -4.2892 -0.2427 0.0576 6.9578 -0.6570 8.9730 3.0493 -0.2173 2.9443 -0.0000 0.0000 0.0000 -73.1520 -7.7354 76.0000 101.4697 -59.4970 -69.9163 -0.0000 0.0000 -9.7321 33.4900 -27.5207 -16.9995 -7.1250 0.0000 -0.0000 1.8673 -2.0000 -1.9324 -0.0000 0.0000 0.0000 84.7837 -16.2788 53.1672 -92.7295 59.9718 -62.3635 0.0000 -0.0000 -16.9131 1.6156 -36.9425 -0.9712 7.1250 -0.0000 -0.0000 42.3550 -61.7282 -19.0852
9.5284 25.2905 8.1701 201.0070 -241.1000 -134.7810 0.0000 0.0000 0.0000 3.2367 -29.2004 -50.7245 3.5388 11.5200 34.0545 0.9208 13.0718 18.1825 5.5992 -14.0284 -43.3512 0.0000 0.0000 0.0000 20.0205 16.3644 -36.3361 -2.4851 -9.8107 28.3659 -1.6572 -8.7568 23.0628 -2.1296 9.1310 -26.2059 -6.3782 -2.4909 -18.8293 0.7168 -1.9446 -1.4375 3.9054 -1.1747 9.2535 -4.4813 -0.2047 -0.0635 6.9780 -0.5950 8.9739 3.0954 -0.1889 2.9658 -0.0000 0.0000 0.0000 -71.6518 -7.2831 75.4535 103.6116 -59.2882 -71.7598 -0.0000 0.0000 -9.5120 33.7651 -27.5721 -17.1948 -7.1250 0.0000 -0.0000 2.0163 -2.1361 -2.0914 -0.0000 0.0000 0.0000 84.2758 -15.8392 53.7165 -92.2645 59.9806 -61.9610 0.0000 -0.0000 -16.2056 2.8908 -36.2889 -1.7119 7.1250 -0.0000 -0.0000 42.7685 -60.9230 -18.4904
9.5366 25.2680 8.2477 203.9330 -244.3300 -132.1650 0.0000 0.0000 0.0000 3.2110 -28.5787 -50.9471 3.7256 11.7860 34.9791 0.8674 13.2358 17.8022 5.6224 -14.0522 -43.4468 0.0000 0.0000 0.0000 19.5398 16.9048 -36.0704 -2.4694 -9.7821 28.2740 -1.5192 -9.1969 22.0956 -2.2579 9.3837 -27.0031 -6.2865 -2.4477 -18.6552 0.7828 -1.9230 -1.3169 3.9331 -1.1665 9.2875 -4.6495 -0.1725 0.0075 7.0056 -0.5450 8.9701 3.1375 -0.1675 2.9503 -0.0000 -0.0000 0.0000 -69.9095 -6.9961 75.1140 105.1886 -59.1101 -73.1144 -0.0000 0.0000 -9.1444 33.4238 -28.2678 -17.3572 -7.1250 0.0000 -0.0000 1.6794 -2.8002 -1.7602 -0.0000 -0.0000 0.0000 83.8853 -15.3648 54.0827 -91.9988 59.9849 -61.7309 0.0000 -0.0000 -15.8514 3.7579 -35.7257 -2.1964 7.1250 -0.0000 -0.0000 42.9227 -60.2922 -17.9201
9.5296 25.2318 8.3178 208.9210 -247.6670 -126.9950 0.0000 0.0000 0.0000 3.5539 -28.5048 -52.2825 3.9829 12.1377 36.2207 0.8322 13.3385 17.5488 5.7625 -14.1942 -44.0209 0.0000 0.0000 0.0000 18.3446 17.3355 -36.6944 -2.4645 -9.7731 28.2450 -1.4064 -9.7896 21.3121 -2.2696 9.4064 -27.0751 -6.4446 -2.5522 -18.8496 0.7176 -2.0005 -1.4287 3.9290 -1.2011 9.2841 -4.5620 -0.1909 0.2972 6.9939 -0.5693 8.9571 3.1134 -0.1776 2.8922 -0.0000 0.0000 0.0000 -67.9731 -7.0127 75.0724 106.1025 -58.9972 -73.8982 -0.0000 0.0000 -8.8002 32.9187 -28.8494 -17.3474 -7.1250 0.0000 -0.0000 1.2720 -3.2875 -1.3431 -0.0000 0.0000 0.0000 83.8819 -15.0994 54.1025 -91.6944 59.9891 -61.4674 0.0000 -0.0000 -15.5490 3.0484 -35.9263 -1.7897 7.1250 -0.0000 -0.0000 42.4902 -60.6138 -18.0282
